<?xml version="1.0" encoding="UTF-8" standalone="no"?>
<svg
   width="14.000002"
   height="15.046267"
   viewBox="0 0 14.000002 15.046267"
   fill="none"
   version="1.1"
   id="svg10"
   sodipodi:docname="Agravite.svg"
   inkscape:version="1.4 (86a8ad7, 2024-10-11)"
   xmlns:inkscape="http://www.inkscape.org/namespaces/inkscape"
   xmlns:sodipodi="http://sodipodi.sourceforge.net/DTD/sodipodi-0.dtd"
   xmlns="http://www.w3.org/2000/svg"
   xmlns:svg="http://www.w3.org/2000/svg">
  <defs
     id="defs10" />
  <sodipodi:namedview
     id="namedview10"
     pagecolor="#ffffff"
     bordercolor="#000000"
     borderopacity="0.25"
     inkscape:showpageshadow="2"
     inkscape:pageopacity="0.0"
     inkscape:pagecheckerboard="0"
     inkscape:deskcolor="#d1d1d1"
     inkscape:zoom="11.221519"
     inkscape:cx="36.002256"
     inkscape:cy="6.3716864"
     inkscape:window-width="1920"
     inkscape:window-height="1051"
     inkscape:window-x="-9"
     inkscape:window-y="-9"
     inkscape:window-maximized="1"
     inkscape:current-layer="svg10" />
  <path
     d="M 0.50000156,12.523133 V 2.5231335 L 7.0000016,0.52313348 13.500002,2.5231335 v 9.9999995 l -6.5000004,2 z"
     stroke="#000000"
     id="path1" />
  <path
     d="m 0.50000156,2.5231335 0.11243,-0.4872 c -0.19314,-0.0446 -0.39438,0.0292 -0.51301,0.188 -0.11862,0.1588 -0.13224,0.3727 -0.0347,0.5452 z m 6.50000004,1.5 -0.1124,0.4872 0.1124,0.0259 0.1124,-0.0259 z m 6.5000004,-1.5 0.4353,0.246 c 0.0975,-0.1725 0.0839,-0.3864 -0.0347,-0.5452 -0.1186,-0.1588 -0.3199,-0.2326 -0.513,-0.188 z m -6.5000004,11.4999995 -0.4353,0.246 0.4353,0.7701 0.4353,-0.7701 z m 2.5279,-5.4884995 c -0.1359,0.2404 -0.0512,0.5454 0.1892,0.6813 0.2404,0.1359 0.5454004,0.0512 0.6813004,-0.1892 z m -5.92632,0.4921 c 0.13588,0.2404 0.44091,0.3251 0.68131,0.1892 0.2404,-0.1359 0.32513,-0.4409 0.18925,-0.6813 z m 1.9303,1.3827995 c -0.13587,-0.2404 -0.44091,-0.3251 -0.68131,-0.1892 -0.2404,0.1358 -0.32513,0.4409 -0.18925,0.6813 z m 3.80682,0.4921 c 0.1359,-0.2404 0.0511,-0.5455 -0.1893,-0.6813 -0.2404,-0.1359 -0.5454,-0.0512 -0.6813,0.1892 z m -8.95113004,-7.8912995 6.50003004,1.5 0.2248,-0.9744 -6.49997004,-1.5 z m 6.72483004,1.5 6.5000004,-1.5 -0.2248,-0.9744 -6.5000004,1.5 z m -0.6124,-0.1987 v 9.7114995 h 1 V 4.3116335 Z m 6.5647004,-2.0345 -3.5368004,6.2575 0.8705004,0.4921 3.5369,-6.2576 z m -8.5925604,6.2575 -3.53686004,-6.2575 -0.87056,0.492 3.53686004,6.2576 z m 2.96316,5.2424995 -1.90342,-3.3676 -0.87056,0.4921 1.90338,3.3675 z m 1.0328,-3.3676 -1.9034,3.3676 0.8706,0.492 1.9034,-3.3675 z"
     fill="#000000"
     id="path2" />
</svg>
